<svg xmlns="http://www.w3.org/2000/svg" width="16" height="16" version="1.1" viewBox="0 0 16 16"><g transform="translate(0 -1036.4)"><rect width="7" height="14" x="27" y="1038.4" fill="#fff" fill-opacity=".996"/><path fill="#e0e0e0" fill-opacity=".996" d="m3 1a2 2 0 0 0 -2 2v10a2 2 0 0 0 2 2h12v-14h-12zm4 2h2a1 1 0 0 1 1 1v2h2a1 1 0 0 1 1 1v2a1 1 0 0 1 -1 1h-2v2a1 1 0 0 1 -1 1h-2a1 1 0 0 1 -1 -1v-2h-2a1 1 0 0 1 -1 -1v-2a1 1 0 0 1 1 -1h2v-2a1 1 0 0 1 1 -1z" transform="translate(0 1036.4)"/><circle cx="8" cy="1044.4" r="1" fill="#e0e0e0"/></g></svg>