<svg xmlns="http://www.w3.org/2000/svg" width="16" height="16" version="1.1" viewBox="0 0 16 16"><g fill="#e0e0e0" fill-opacity=".996" transform="translate(0 -1036.4)"><path d="m9 2a6 6 0 0 0 -6 6h2a4 4 0 0 1 4 -4 4 4 0 0 1 4 4 4 4 0 0 1 -4 4v2a6 6 0 0 0 6 -6 6 6 0 0 0 -6 -6z" transform="translate(0 1036.4)"/><path d="m4.118 1048.3-1.6771-0.9683-1.6771-0.9682 1.6771-0.9683 1.6771-0.9682-1e-7 1.9365z" transform="matrix(0 -1.1926 1.5492 0 -1617 1049.3)"/><rect width="2" height="4" x="8" y="1041.4"/><rect width="4" height="2" x="8" y="1043.4"/></g></svg>