<svg xmlns="http://www.w3.org/2000/svg" width="14" height="14" version="1.1" viewBox="0 0 14 14"><g><path fill="#fff" fill-opacity=".588" stroke-linejoin="round" stroke-opacity=".392" stroke-width="2" d="m7.5 1a1.5 1.5 0 0 0 -1.5 1.5 1.5 1.5 0 0 0 1.5 1.5 1.5 1.5 0 0 0 1.5 -1.5 1.5 1.5 0 0 0 -1.5 -1.5zm0 5a1.5 1.5 0 0 0 -1.5 1.5 1.5 1.5 0 0 0 1.5 1.5 1.5 1.5 0 0 0 1.5 -1.5 1.5 1.5 0 0 0 -1.5 -1.5zm0 5a1.5 1.5 0 0 0 -1.5 1.5 1.5 1.5 0 0 0 1.5 1.5 1.5 1.5 0 0 0 1.5 -1.5 1.5 1.5 0 0 0 -1.5 -1.5z" transform="translate(0 -1038.4) translate(0 1038.4)"/></g></svg>