<svg xmlns="http://www.w3.org/2000/svg" xmlns:svg="http://www.w3.org/2000/svg" id="svg6" width="16" height="8" version="1.1" viewBox="0 0 16 8"><metadata id="metadata12"/><path style="fill:#e0e0e0;fill-opacity:1" id="rect1389" d="m 2.1665128,0.99764963 c -0.422625,0 -0.763672,0.34104737 -0.763672,0.76367187 v 4.5742187 c 0,0.4226242 0.341047,0.7617192 0.763672,0.7617192 h 4.472656 c 0.422625,0 0.763672,-0.339095 0.763672,-0.7617192 V 5.347259 h -3.300781 c -0.1662,0 -0.298828,-0.3390943 -0.298828,-0.7617188 V 3.3609308 c 0,-0.4226244 0.132628,-0.7636718 0.298828,-0.7636718 h 3.300781 V 1.7613215 c 0,-0.4226245 -0.341047,-0.76367187 -0.763672,-0.76367187 z"/><path style="fill:#e0e0e0;fill-opacity:1;stroke:#e0e0e0;stroke-width:.80299997;stroke-miterlimit:4;stroke-dasharray:none;stroke-opacity:1" id="path1424" d="M 9.1827441,4.7953408 C 9.6993662,3.7537783 10.278269,2.5835979 10.469195,2.1949398 l 0.347137,-0.7066511 0.679654,0.00665 0.679654,0.00665 0.956945,2.3125 c 0.526319,1.271875 1.007254,2.4334375 1.068744,2.5812497 l 0.1118,0.26875 H 13.715914 13.1187 L 12.785851,6.0203387 12.453002,5.3765887 H 11.319176 10.185351 L 9.8066761,6.032702 9.4280014,6.6888154 l -0.5922856,1.37e-4 -0.592285,1.36e-4 z m 3.1779349,-0.369483 c 0.0042,-0.00346 -0.233487,-0.4884588 -0.528245,-1.0777779 l -0.535922,-1.0714891 -0.03691,0.0875 c -0.0203,0.048125 -0.183516,0.425 -0.362699,0.8375 -0.179182,0.4125 -0.355738,0.85125 -0.392346,0.975 -0.03661,0.12375 -0.07127,0.2390723 -0.07703,0.2562715 -0.0083,0.024853 0.188215,0.027989 0.957503,0.015278 0.532385,-0.0088 0.971429,-0.018823 0.975651,-0.022283 z"/></svg>