<svg xmlns="http://www.w3.org/2000/svg" xmlns:svg="http://www.w3.org/2000/svg" id="svg6" width="16" height="16" version="1.1" viewBox="0 0 16 16"><metadata id="metadata12"/><path style="fill:none;stroke:#84c2ff;stroke-width:1.70000005;stroke-linecap:butt;stroke-linejoin:miter;stroke-miterlimit:4.9000001;stroke-dasharray:none;stroke-opacity:1" id="path4526" d="m 1.7627119,13.627119 c 0,0 1.2881355,-6.847458 6.5762712,-8.1355935 5.0847459,0.9491522 5.9661009,8.1355925 5.9661009,8.1355925"/><ellipse style="fill:#e0e0e0;fill-opacity:1;stroke:none;stroke-width:5.64574671;stroke-miterlimit:4.9000001;stroke-dasharray:none;stroke-opacity:1" id="path5846" cx="1.898" cy="13.492" rx="1.268" ry="1.2"/><ellipse style="fill:#e0e0e0;fill-opacity:1;stroke:none;stroke-width:5.64574671;stroke-miterlimit:4.9000001;stroke-dasharray:none;stroke-opacity:1" id="path5846-3" cx="14.237" cy="13.492" rx="1.268" ry="1.2"/><path style="fill:none;stroke:#84c2ff;stroke-width:.80513805;stroke-linecap:butt;stroke-linejoin:miter;stroke-miterlimit:4;stroke-dasharray:none;stroke-opacity:1" id="path5878" d="M 8.2033896,4.6779662 H 4.3698875"/><path style="fill:none;stroke:#84c2ff;stroke-width:.71670938;stroke-linecap:butt;stroke-linejoin:miter;stroke-miterlimit:4;stroke-dasharray:none;stroke-opacity:1" id="path5878-7" d="M 11.931789,4.6440679 H 8.2033896"/><ellipse style="fill:#e0e0e0;fill-opacity:1;stroke:none;stroke-width:5.64574671;stroke-miterlimit:4.9000001;stroke-dasharray:none;stroke-opacity:1" id="path5846-3-6" cx="8.271" cy="4.78" rx="1.268" ry="1.2"/><path style="fill:#e0e0e0;fill-opacity:1;stroke:none;stroke-width:5.64574671;stroke-miterlimit:4.9000001;stroke-dasharray:none;stroke-opacity:1" id="path5846-5" d="M 3.1539157,3.4305762 A 1.2675855,1.1997888 0 0 0 1.8863376,4.629795 1.2675855,1.1997888 0 0 0 3.1539157,5.8290137 1.2675855,1.1997888 0 0 0 4.4214938,4.629795 1.2675855,1.1997888 0 0 0 3.1539157,3.4305762 Z m 0.00195,0.4238282 A 0.84677333,0.80148375 0 0 1 4.003525,4.6551856 0.84677333,0.80148375 0 0 1 3.1558688,5.4559668 0.84677333,0.80148375 0 0 1 2.3082126,4.6551856 0.84677333,0.80148375 0 0 1 3.1558688,3.8544044 Z"/><path style="fill:#e0e0e0;fill-opacity:1;stroke:none;stroke-width:5.64574671;stroke-miterlimit:4.9000001;stroke-dasharray:none;stroke-opacity:1" id="path5846-5-6" d="m 13.093969,3.3750567 a 1.2675855,1.1997888 0 0 0 -1.267578,1.1992188 1.2675855,1.1997888 0 0 0 1.267578,1.1992187 1.2675855,1.1997888 0 0 0 1.267578,-1.1992187 1.2675855,1.1997888 0 0 0 -1.267578,-1.1992188 z m 0.002,0.4238282 a 0.84677333,0.80148375 0 0 1 0.847659,0.8007812 0.84677333,0.80148375 0 0 1 -0.847656,0.8007812 0.84677333,0.80148375 0 0 1 -0.847656,-0.8007812 0.84677333,0.80148375 0 0 1 0.847656,-0.8007812 z"/></svg>