<svg xmlns="http://www.w3.org/2000/svg" xmlns:svg="http://www.w3.org/2000/svg" id="svg20" width="16" height="16" version="1.1" viewBox="0 0 16 16"><metadata id="metadata26"/><g id="g18" transform="matrix(1,0,0,0.50605327,0,0.49394673)"><path id="path2" d="M 2,1 C 1.44774,1.0001 1.00006,1.4477 1,2 v 12 c 5.52e-5,0.5523 0.44774,0.9999 1,1 h 12 c 0.55226,-10e-5 0.99994,-0.4477 1,-1 V 6 L 10,1 Z m 1,2 h 6 v 3 c 0,0.554 0.44599,1 1,1 h 3 v 6 H 3 Z" style="fill:#e0e0e0"/><path id="path4" d="m 10,11 h 2 v 1 h -2 z" style="fill:#9f70ff"/><path id="path6" d="M 4,6 H 6 V 7 H 4 Z" style="fill:#ffeb70"/><path id="path8" d="m 8,8 h 4 V 9 H 8 Z" style="fill:#9dff70"/><path id="path10" d="M 7,6 H 8 V 7 H 7 Z" style="fill:#70deff"/><path id="path12" d="m 4,11 h 5 v 1 H 4 Z" style="fill:#ff70ac"/><path id="path14" d="M 4,4 H 7 V 5 H 4 Z" style="fill:#ff7070"/><path id="path16" d="M 4,8 H 7 V 9 H 4 Z" style="fill:#70ffb9"/></g><path style="fill:#e0e0e0" id="path1394" d="m 2.8642321,9 v 6 h 2 a 3,3 0 0 0 3,-3 V 9 h -2 v 3 a 1,1 0 0 1 -1,1 V 9 Z"/><path style="fill:#e0e0e0" id="path30" d="m 10.864232,9 a 2,2 0 0 0 -1.7323999,1 2,2 0 0 0 0,2 2,2 0 0 0 1.7323999,1 H 8.8642321 v 2 h 1.9999999 a 2,2 0 0 0 1.7324,-1 2,2 0 0 0 0,-2 2,2 0 0 0 -1.7324,-1 h 2 V 9 Z"/></svg>