<svg xmlns="http://www.w3.org/2000/svg" xmlns:svg="http://www.w3.org/2000/svg" id="svg6" width="16" height="16" version="1.1" viewBox="0 0 16 16"><metadata id="metadata12"/><g style="font-style:normal;font-weight:400;font-size:19.68510056px;line-height:1.25;font-family:sans-serif;letter-spacing:0;word-spacing:0;fill:#e0e0e0;fill-opacity:1;stroke:none;stroke-width:.92273909" id="text3719" aria-label="!" transform="matrix(1.2172834,0,0,0.60107067,0.478728,1.8392137)"><path style="fill:#e0e0e0;fill-opacity:1;stroke-width:.92273909" id="path10" d="M 5.2902433,14.98657 H 7.241452 v 2.441414 H 5.2902433 Z m 0,-11.909101 H 7.241452 V 9.3732409 L 7.0492147,12.804677 H 5.4920925 L 5.2902433,9.3732409 Z"/></g><path style="fill:#e0e0e0;fill-opacity:1;stroke-width:.88671917" id="path4526" d="M 8.0503291,1.1522775 A 6.8983747,6.8983747 0 0 0 1.1522775,8.0503291 6.8983747,6.8983747 0 0 0 8.0503291,14.950113 6.8983747,6.8983747 0 0 0 14.950113,8.0503291 6.8983747,6.8983747 0 0 0 8.0503291,1.1522775 Z M 8.0208873,2.2953139 A 5.6659852,5.6659852 0 0 1 13.687577,7.9602717 5.6659852,5.6659852 0 0 1 8.0208873,13.626961 5.6659852,5.6659852 0 0 1 2.3541977,7.9602717 5.6659852,5.6659852 0 0 1 8.0208873,2.2953139 Z"/></svg>