<svg xmlns="http://www.w3.org/2000/svg" xmlns:svg="http://www.w3.org/2000/svg" id="svg8" width="16" height="16" version="1.1" viewBox="0 0 16 16"><metadata id="metadata14"/><g id="g6" transform="translate(0 -1036.4)"><g id="g4" transform="translate(-26.001 -9.8683)"><path style="fill:#e0e0e0;fill-opacity:1" id="rect821" d="m 27.917081,1047.5557 c -0.422624,0 -0.763672,0.3411 -0.763672,0.7637 v 11.8301 c 0,0.4226 0.341048,0.7637 0.763672,0.7637 h 12.507813 c 0.422624,0 0.761719,-0.3411 0.761719,-0.7637 v -11.8301 c 0,-0.4226 -0.339095,-0.7637 -0.761719,-0.7637 z m 1.898438,1.6954 h 8.642578 c 0.422624,0 0.763672,0.341 0.763672,0.7636 v 8.5078 c 0,0.4227 -0.341048,0.7618 -0.763672,0.7618 h -8.642578 c -0.422625,0 -0.763672,-0.3391 -0.763672,-0.7618 v -8.5078 c 0,-0.4226 0.341047,-0.7636 0.763672,-0.7636 z"/><rect style="fill:#e0e0e0;fill-opacity:1" id="rect826" width="7.797" height="2.373" x="30.204" y="1052.98" ry=".763"/><rect style="fill:#e0e0e0;fill-opacity:1;stroke-width:.88253576" id="rect828" width="2.373" height="7.525" x="32.916" y="1050.336" ry=".73"/></g></g></svg>