<svg xmlns="http://www.w3.org/2000/svg" xmlns:svg="http://www.w3.org/2000/svg" id="svg2" width="16" height="16" version="1.1" viewBox="0 0 16 16"><metadata id="metadata12"/><g id="g4505" transform="translate(-2.5625,-18.4375)"><path id="path6-9-8" d="m 13.107422,19.382812 a 2.4664,2.4663 0 0 0 -1.78125,0.720704 2.4664,2.4663 0 0 0 -0.185547,0.21289 L 12.472656,22.75 10.867187,23.353516 7.453125,26.767578 a 2.4664,2.4663 0 0 0 -3.1015625,0.3125 2.4664,2.4663 0 0 0 0,3.488281 2.4664,2.4663 0 0 0 1.3964844,0.695313 2.4664,2.4663 0 0 0 0.6953125,1.396484 2.4664,2.4663 0 0 0 3.4882812,0 2.4664,2.4663 0 0 0 0.3144534,-3.103515 l 3.560547,-3.560547 a 2.4664,2.4663 0 0 0 3.099609,-0.310547 2.4664,2.4663 0 0 0 0,-3.488281 A 2.4664,2.4663 0 0 0 15.509766,21.5 2.4664,2.4663 0 0 0 14.814453,20.103516 2.4664,2.4663 0 0 0 13.107422,19.382812 Z" style="fill:#fc9c9c"/><path id="rect4140-5-1-4-3-7-9-03" d="m 3.7211033,21.208326 0.9608286,4.82644 1.3962404,-0.524494 z" style="opacity:1;fill:#fc9c9c;fill-opacity:1;fill-rule:nonzero;stroke:none;stroke-width:1.42799997;stroke-linecap:square;stroke-linejoin:miter;stroke-miterlimit:4;stroke-dasharray:none;stroke-dashoffset:0;stroke-opacity:1"/><path id="rect4140-5-1-4-3-7-9-5-3" d="m 6.4843278,19.465234 0.9608285,4.82644 1.3962404,-0.524494 z" style="opacity:1;fill:#fc9c9c;fill-opacity:1;fill-rule:nonzero;stroke:none;stroke-width:1.42799997;stroke-linecap:square;stroke-linejoin:miter;stroke-miterlimit:4;stroke-dasharray:none;stroke-dashoffset:0;stroke-opacity:1"/><path id="rect4140-5-1-4-3-7-9-5-3-8" d="m 9.6964655,19.33678 0.7108285,3.51394 1.39624,-0.524494 z" style="opacity:1;fill:#fc9c9c;fill-opacity:1;fill-rule:nonzero;stroke:none;stroke-width:1.42799997;stroke-linecap:square;stroke-linejoin:miter;stroke-miterlimit:4;stroke-dasharray:none;stroke-dashoffset:0;stroke-opacity:1"/></g></svg>