<svg xmlns="http://www.w3.org/2000/svg" xmlns:svg="http://www.w3.org/2000/svg" id="svg6" width="16" height="16" version="1.1" viewBox="0 0 16 16"><metadata id="metadata12"/><path style="fill:none;stroke:#84c2ff;stroke-width:1.70000005;stroke-linecap:butt;stroke-linejoin:miter;stroke-miterlimit:4.9000001;stroke-dasharray:none;stroke-opacity:1" id="path4526" d="m 1.7627119,13.627119 c 0,0 1.2881355,-6.847458 6.5762712,-8.1355935 5.0847459,0.9491522 5.9661009,8.1355925 5.9661009,8.1355925"/><ellipse style="fill:#e0e0e0;fill-opacity:1;stroke:none;stroke-width:5.64574671;stroke-miterlimit:4.9000001;stroke-dasharray:none;stroke-opacity:1" id="path5846" cx="1.898" cy="13.492" rx="1.268" ry="1.2"/><ellipse style="fill:#e0e0e0;fill-opacity:1;stroke:none;stroke-width:5.64574671;stroke-miterlimit:4.9000001;stroke-dasharray:none;stroke-opacity:1" id="path5846-3" cx="14.237" cy="13.492" rx="1.268" ry="1.2"/><path style="fill:none;stroke:#84c2ff;stroke-width:.61799997;stroke-linecap:butt;stroke-linejoin:miter;stroke-miterlimit:4;stroke-dasharray:none;stroke-opacity:1" id="path5878" d="M 7.4559186,5.1473018 2.7203863,6.7014816"/><path style="fill:none;stroke:#84c2ff;stroke-width:.61489719;stroke-linecap:butt;stroke-linejoin:miter;stroke-miterlimit:4;stroke-dasharray:none;stroke-opacity:1" id="path5878-7" d="M 10.790357,4.2063094 8.2893822,5.149623"/><ellipse style="fill:#e0e0e0;fill-opacity:1;stroke:none;stroke-width:5.64574671;stroke-miterlimit:4.9000001;stroke-dasharray:none;stroke-opacity:1" id="path5846-3-6" cx="8.271" cy="4.78" rx="1.268" ry="1.2"/><path style="fill:#e0e0e0;fill-opacity:1;stroke:none;stroke-width:5.64574671;stroke-miterlimit:4.9000001;stroke-dasharray:none;stroke-opacity:1" id="path5846-5" d="M 1.7157324,5.8754878 A 1.2675855,1.1997888 0 0 0 0.44815434,7.0747066 1.2675855,1.1997888 0 0 0 1.7157324,8.2739253 1.2675855,1.1997888 0 0 0 2.9833105,7.0747066 1.2675855,1.1997888 0 0 0 1.7157324,5.8754878 Z m 0.00195,0.4238282 A 0.84677333,0.80148375 0 0 1 2.5653417,7.1000972 0.84677333,0.80148375 0 0 1 1.7176855,7.9008784 0.84677333,0.80148375 0 0 1 0.87002934,7.1000972 0.84677333,0.80148375 0 0 1 1.7176855,6.299316 Z"/><path style="fill:#e0e0e0;fill-opacity:1;stroke:none;stroke-width:5.7567277;stroke-miterlimit:4.9000001;stroke-dasharray:none;stroke-opacity:1" id="path5846-5-6" d="M 11.909414,2.4642073 A 1.2836218,1.231838 0 0 0 10.6258,3.6954601 1.2836218,1.231838 0 0 0 11.909414,4.9267128 1.2836218,1.231838 0 0 0 13.193028,3.6954601 1.2836218,1.231838 0 0 0 11.909414,2.4642073 Z m 0.002,0.4351497 a 0.85748593,0.82289328 0 0 1 0.858383,0.8221719 0.85748593,0.82289328 0 0 1 -0.85838,0.822172 0.85748593,0.82289328 0 0 1 -0.858379,-0.822172 0.85748593,0.82289328 0 0 1 0.858379,-0.8221719 z"/></svg>