<svg xmlns="http://www.w3.org/2000/svg" xmlns:svg="http://www.w3.org/2000/svg" id="svg6" width="16" height="16" version="1.1" viewBox="0 0 16 16"><metadata id="metadata12"/><g id="g4" transform="translate(0 -1036.4)" style="fill:#a5b7f3;fill-opacity:1"><path id="path2" fill="#fc9c9c" d="m10.478 1037.4a2.4664 2.4663 0 0 0 -1.7804 0.7205 2.4664 2.4663 0 0 0 -0.31408 3.1041l-3.559 3.5608a2.4664 2.4663 0 0 0 -3.1023 0.3121 2.4664 2.4663 0 0 0 0 3.4876 2.4664 2.4663 0 0 0 1.397 0.6955 2.4664 2.4663 0 0 0 0.69561 1.397 2.4664 2.4663 0 0 0 3.4877 0 2.4664 2.4663 0 0 0 0.31408 -3.1041l3.5609-3.5608a2.4664 2.4663 0 0 0 3.1004 -0.3102 2.4664 2.4663 0 0 0 0 -3.4875 2.4664 2.4663 0 0 0 -1.397 -0.6974 2.4664 2.4663 0 0 0 -0.69561 -1.3971 2.4664 2.4663 0 0 0 -1.7072 -0.7205z" style="fill:#a5b7f3;fill-opacity:1"/></g></svg>