<svg xmlns="http://www.w3.org/2000/svg" width="16" height="16" version="1.1" viewBox="0 0 16 16"><g fill="#e0e0e0" transform="translate(0 -1036.4)"><rect width="14" height="2" x="1" y="1037.4"/><rect width="2" height="14" x="7" y="1037.4"/><rect width="6" height="1" x="5" y="1050.4"/><rect width="4" height="1" x="1037.4" y="-2" transform="rotate(90)"/><rect width="4" height="1" x="1037.4" y="-15" transform="rotate(90)"/><path d="m2 3v2a2 2 0 0 1 2 -2h-2z" transform="translate(0 1036.4)"/><path d="m12 3a2 2 0 0 1 2 2v-2h-2z" transform="translate(0 1036.4)"/><path d="m5 1050.4a2 2 0 0 0 2 -2v2h-2z"/><path d="m11 1050.4a2 2 0 0 1 -2 -2v2h2z"/></g></svg>