<svg xmlns="http://www.w3.org/2000/svg" xmlns:svg="http://www.w3.org/2000/svg" id="svg6" width="8" height="8" version="1.1" viewBox="0 0 8 8"><metadata id="metadata12"/><g id="g4" transform="translate(0 -1044.4)"><path style="fill:#e0e0e0;fill-opacity:1" id="rect2" d="M 3.9960938 -0.037109375 C 3.8010931 -0.037109375 3.6064535 0.038077731 3.4570312 0.1875 L 0.22070312 3.4238281 C -0.078134343 3.7226656 -0.078141414 4.2050617 0.22070312 4.5039062 L 3.4570312 7.7402344 C 3.7558687 8.0390718 4.2382719 8.0390718 4.5371094 7.7402344 L 7.7734375 4.5039062 C 8.072282 4.2050617 8.072275 3.7226656 7.7734375 3.4238281 L 4.5371094 0.1875 C 4.3876871 0.038077731 4.1910944 -0.037109375 3.9960938 -0.037109375 z M 4.0253906 0.81445312 C 4.1770098 0.81445312 4.3291322 0.87241756 4.4453125 0.98828125 L 6.9609375 3.4960938 C 7.193298 3.7278211 7.193298 4.102257 6.9609375 4.3339844 L 4.4453125 6.84375 C 4.212952 7.0754774 3.8378293 7.0754774 3.6054688 6.84375 L 1.0898438 4.3339844 C 0.85748323 4.102257 0.85748323 3.7278211 1.0898438 3.4960938 L 3.6054688 0.98828125 C 3.721649 0.87241756 3.8737714 0.81445312 4.0253906 0.81445312 z" transform="translate(0,1044.4)"/></g></svg>