<svg xmlns="http://www.w3.org/2000/svg" xmlns:svg="http://www.w3.org/2000/svg" id="svg2" width="48" height="16" version="1.1" viewBox="0 0 48 16"><metadata id="metadata8"/><path style="fill:#000;stroke-width:1.06666672" id="path819"/><path style="fill:#000;stroke-width:1.06666672" id="path817"/><g id="g8" transform="matrix(0.04333868,0,0,0.04333868,-4.0493236,-3.7704963)"><path id="path10" d="m 724.1,432.41989 h -40.6 c 0,0 0,-99 0,-129.7 13,7.2 30.1,20.5 40.6,33.3 z" style="fill:#e6555a;fill-opacity:1"/><g id="g12" transform="translate(0,47.319882)" style="fill:#e6555a;fill-opacity:1"><path id="path14" d="m 381.8,385.1 h -50.6 l -66,-204 h 46 l 45.4,143.5 h 0.6 l 46,-143.5 h 46.3 z" style="fill:#e6555a;fill-opacity:1"/><path id="path16" d="M 585.5,385.1 H 546.9 V 364.5 H 546 c -5.1,8.6 -11.8,14.8 -20,18.6 -8.2,3.8 -16.6,5.7 -25.1,5.7 -10.9,0 -19.8,-1.4 -26.7,-4.3 -7,-2.9 -12.4,-6.9 -16.4,-12.1 -4,-5.2 -6.8,-11.6 -8.4,-19.1 -1.6,-7.5 -2.4,-15.9 -2.4,-25 v -90.9 h 40.6 v 83.4 c 0,12.2 1.9,21.3 5.7,27.3 3.8,6 10.6,9 20.3,9 11,0 19.1,-3.3 24,-9.9 5,-6.6 7.4,-17.4 7.4,-32.4 v -77.4 h 40.6 v 147.7 z" style="fill:#e6555a;fill-opacity:1"/></g><polygon id="polygon18" points="730.8 296.2 730.7 290.5 781.9 237.3 829.9 237.3 774.2 291.6 836.2 385.1 787 385.1" transform="translate(0,47.319882)" style="fill:#e6555a;fill-opacity:1"/><path id="path20" d="m 843.6,330.11989 c 0.6,-9.5 3,-17.4 7.2,-23.7 4.2,-6.3 9.5,-11.3 16,-15.1 6.5,-3.8 13.8,-6.5 21.9,-8.1 8.1,-1.6 16.2,-2.4 24.4,-2.4 7.4,0 15,0.5 22.6,1.6 7.6,1.1 14.6,3.1 20.9,6.1 6.3,3.1 11.4,7.3 15.4,12.7 4,5.4 6,12.6 6,21.6 v 76.9 c 0,6.7 0.4,13.1 1.1,19.1 0.8,6.1 2.1,10.7 4,13.7 h -41.2 c -0.8,-2.3 -1.4,-4.6 -1.9,-7 -0.5,-2.4 -0.8,-4.8 -1,-7.3 -6.5,6.7 -14.1,11.3 -22.9,14 -8.8,2.7 -17.7,4 -26.9,4 -7,0 -13.6,-0.9 -19.7,-2.6 -6.1,-1.7 -11.4,-4.4 -16,-8 -4.6,-3.6 -8.2,-8.2 -10.7,-13.7 -2.6,-5.5 -3.9,-12.1 -3.9,-19.7 0,-8.4 1.5,-15.3 4.4,-20.7 3,-5.4 6.8,-9.8 11.4,-13 4.7,-3.2 10,-5.7 16,-7.3 6,-1.6 12,-2.9 18.1,-3.9 6.1,-0.9 12.1,-1.7 18,-2.3 5.9,-0.6 11.1,-1.4 15.7,-2.6 4.6,-1.1 8.2,-2.8 10.9,-5 2.7,-2.2 3.9,-5.4 3.7,-9.6 0,-4.4 -0.7,-7.9 -2.2,-10.4 -1.4,-2.6 -3.3,-4.6 -5.7,-6 -2.4,-1.4 -5.1,-2.4 -8.3,-2.9 -3.1,-0.5 -6.5,-0.7 -10.1,-0.7 -8,0 -14.3,1.7 -18.9,5.1 -4.6,3.4 -7.2,9.1 -8,17.1 h -40.3 z m 93.8,30 c -1.7,1.5 -3.9,2.7 -6.4,3.6 -2.6,0.9 -5.3,1.6 -8.3,2.2 -2.9,0.6 -6,1 -9.3,1.4 -3.2,0.4 -6.5,0.9 -9.7,1.4 -3,0.6 -6,1.3 -9,2.3 -3,1 -5.5,2.2 -7.7,3.9 -2.2,1.6 -4,3.7 -5.3,6.1 -1.3,2.5 -2,5.6 -2,9.4 0,3.6 0.7,6.7 2,9.1 1.3,2.5 3.1,4.4 5.4,5.9 2.3,1.4 5,2.4 8,3 3.1,0.6 6.2,0.9 9.4,0.9 8,0 14.2,-1.3 18.6,-4 4.4,-2.7 7.6,-5.9 9.7,-9.6 2.1,-3.7 3.4,-7.5 3.9,-11.3 0.5,-3.8 0.7,-6.9 0.7,-9.1 z" style="fill:#e6555a;fill-opacity:1"/><path id="path22" d="m 1004.2,284.61989 h 38.6 v 20.6 h 0.9 c 5.1,-8.6 11.8,-14.8 20,-18.7 8.2,-3.9 16.6,-5.9 25.1,-5.9 10.9,0 19.8,1.5 26.7,4.4 7,3 12.4,7.1 16.4,12.3 4,5.2 6.8,11.6 8.4,19.1 1.6,7.5 2.4,15.9 2.4,25 v 90.9 h -40.6 v -83.4 c 0,-12.2 -1.9,-21.3 -5.7,-27.3 -3.8,-6 -10.6,-9 -20.3,-9 -11,0 -19,3.3 -24,9.9 -5,6.6 -7.4,17.4 -7.4,32.4 v 77.4 h -40.6 v -147.7 z" style="fill:#e6555a;fill-opacity:1"/><g id="g24" transform="translate(0,47.319882)" style="fill:#e6555a;fill-opacity:1"><path id="path26" d="M 612.4,211.8 V 385 H 653 V 234.2 c -13.1,-8 -26.6,-15.5 -40.6,-22.4 z" style="fill:#e6555a;fill-opacity:1"/></g><path id="path28" d="m 198.4,266.51989 c 23.5,-68.9 164.2,-94.2 314.1,-56.4 90,22.6 163.5,66.5 211.5,109.9 -21.7,-57.6 -127.3,-139.6 -272.8,-167.7 -164.5,-31.8 -326.7,-3.9 -346.8,69.1 -14.5,52.7 49.2,114.5 147.7,156.7 -44.3,-35.8 -65.8,-76 -53.7,-111.6 z" style="fill:#e6555a;fill-opacity:1"/><g id="g30" transform="translate(0,47.319882)" style="fill:#e6555a;fill-opacity:1"><path id="path32" d="M 724.2,247.6 V 181 h -40.6 v 20.2 c 17.3,15.5 31,31.2 40.6,46.4 z" style="fill:#e6555a;fill-opacity:1"/></g></g></svg>