<svg xmlns="http://www.w3.org/2000/svg" width="16" height="16" version="1.1" viewBox="0 0 16 16"><path fill="none" stroke="#f5f5f5" stroke-opacity=".392" stroke-width="2" d="m3 13 10-10"/><g><path fill="#84ffb1" d="m11 9v2h-2v2h2v2h2v-2h2v-2h-2v-2z" transform="translate(0 -1036.4) translate(0 1036.4)"/></g><circle cx="4" cy="12" r="2" fill="none"/><path fill="#e0e0e0" d="m13 1a2 2 0 0 0 -2 2 2 2 0 0 0 2 2 2 2 0 0 0 2 -2 2 2 0 0 0 -2 -2zm-10 10a2 2 0 0 0 -2 2 2 2 0 0 0 2 2 2 2 0 0 0 2 -2 2 2 0 0 0 -2 -2z"/></svg>