<svg xmlns="http://www.w3.org/2000/svg" xmlns:svg="http://www.w3.org/2000/svg" id="svg6" width="16" height="16" version="1.1" viewBox="0 0 16 16"><metadata id="metadata12"/><path id="path2" d="m 13.999798,14 c 0.552262,-5.5e-5 0.999945,-0.447738 1,-1 V 3 c -5.5e-5,-0.5522619 -0.447738,-0.9999448 -1,-1 H 5.9997976 C 5.6959349,1.9998247 5.4084731,2.1378063 5.2185476,2.375 l -4,5 c -0.29139692,0.3649711 -0.29139692,0.8830289 0,1.248 l 4,5 c 0.189538,0.237924 0.4770584,0.376652 0.78125,0.37695 h 8.0000004 z m -1,-2 H 6.4802976 l -3.1992,-4 3.1992,-4 H 12.999798 Z M 6.9997976,10 V 6 l -2,2 z" style="color:#000;text-indent:0;text-decoration:none;text-decoration-line:none;text-decoration-style:solid;text-decoration-color:#000;text-transform:none;white-space:normal;isolation:auto;mix-blend-mode:normal;solid-color:#000;fill:#e0e0e0;fill-rule:evenodd;color-rendering:auto;image-rendering:auto;shape-rendering:auto"/><g style="font-style:normal;font-variant:normal;font-weight:700;font-stretch:normal;font-size:40px;line-height:1.25;font-family:sans-serif;-inkscape-font-specification:'sans-serif Bold';letter-spacing:0;word-spacing:0;fill:#e0e0e0;fill-opacity:1;stroke:none" id="text829" aria-label="E" transform="matrix(0.20475474,0,0,0.20475474,4.7903856,12.365563)"><path style="fill:#e0e0e0;fill-opacity:1" id="path831" d="M 15.129502,-36.414393 H 35.422471 V -30.7308 H 22.649034 v 5.429688 h 12.011718 v 5.683594 H 22.649034 v 6.679687 h 13.203125 v 5.6835938 H 15.129502 Z"/></g></svg>