<svg xmlns="http://www.w3.org/2000/svg" xmlns:svg="http://www.w3.org/2000/svg" id="svg6" width="16" height="16" version="1.1" viewBox="0 0 16 16"><metadata id="metadata12"/><g id="g830" transform="translate(0.35954582,-0.28763666)"><path id="path2" d="M 2,1 C 1.4477153,1 1,1.4477153 1,2 v 12 c 0,0.552285 0.4477153,1 1,1 h 12 c 0.552285,0 1,-0.447715 1,-1 V 2 C 15,1.4477153 14.552285,1 14,1 Z m 1,2 h 10 v 8 H 3 Z" style="fill:#e0e0e0;fill-opacity:.99607999"/></g><g style="font-style:normal;font-variant:normal;font-weight:700;font-stretch:normal;font-size:8.29580784px;line-height:1.25;font-family:Ubuntu;-inkscape-font-specification:'Ubuntu Bold';letter-spacing:0;word-spacing:0;fill:#e0e0e0;fill-opacity:.99607843;stroke:none;stroke-width:.2073952" id="text834" aria-label="[]" transform="matrix(1.6197742,0,0,0.750929,-3.7231532,1.8329569)"><path style="fill:#e0e0e0;fill-opacity:.99607843;stroke-width:.2073952" id="path862" d="M 4.7302951,2.4553483 H 6.978459 V 3.4425495 H 5.9082998 V 9.4984892 H 6.978459 V 10.48569 H 4.7302951 Z"/><path style="fill:#e0e0e0;fill-opacity:.99607843;stroke-width:.2073952" id="path864" d="M 10.138643,10.48569 H 7.8904794 V 9.4984892 H 8.9606386 V 3.4425495 H 7.8904794 V 2.4553483 h 2.2481636 z"/></g></svg>