<svg xmlns="http://www.w3.org/2000/svg" xmlns:svg="http://www.w3.org/2000/svg" id="svg6" width="16" height="16" version="1.1" viewBox="0 0 16 16"><metadata id="metadata12"/><g id="g4" transform="translate(0 -1036.4)"><g id="g8" transform="matrix(0.0279396,0,0,0.02755726,0.91401567,1037.1343)" style="fill:#e0e0e0;fill-opacity:1"><g id="g6" style="fill:#e0e0e0;fill-opacity:1"><path id="path2" d="M 276.193,58.507 V 40.389 h 14.578 c 11.153,0 20.194,-9.042 20.194,-20.194 C 310.965,9.043 301.923,0 290.771,0 h -69.544 c -11.153,0 -20.194,9.042 -20.194,20.194 0,11.152 9.042,20.194 20.194,20.194 h 14.578 V 58.506 C 119.952,68.76 28.799,166.327 28.799,284.799 28.799,410.078 130.721,512 256,512 381.279,512 483.201,410.078 483.201,284.799 483.2,166.327 392.046,68.76 276.193,58.507 Z m 0,412.009 v -20.124 c 0,-11.153 -9.042,-20.194 -20.194,-20.194 -11.153,0 -20.194,9.042 -20.194,20.194 v 20.124 C 148.895,461.131 79.668,391.902 70.283,304.994 h 20.124 c 11.153,0 20.194,-9.042 20.194,-20.194 0,-11.152 -9.042,-20.194 -20.194,-20.194 H 70.282 c 9.385,-86.91 78.614,-156.137 165.522,-165.523 v 20.124 c 0,11.153 9.042,20.194 20.194,20.194 11.153,0 20.194,-9.042 20.194,-20.194 V 99.081 c 86.91,9.385 156.137,78.614 165.522,165.523 H 421.59 c -11.153,0 -20.194,9.042 -20.194,20.194 0,11.152 9.042,20.194 20.194,20.194 h 20.126 c -9.385,86.911 -78.613,156.14 -165.523,165.524 z" style="fill:#e0e0e0;fill-opacity:1"/><path id="path4" d="m 317.248,194.99 -58.179,58.18 c -1.011,-0.097 -2.034,-0.151 -3.071,-0.151 -17.552,0 -31.779,14.229 -31.779,31.779 0,17.552 14.228,31.779 31.779,31.779 17.551,0 31.779,-14.229 31.779,-31.779 0,-1.037 -0.054,-2.06 -0.151,-3.07 l 58.178,-58.18 c 7.887,-7.885 7.887,-20.672 0,-28.559 -7.882,-7.886 -20.669,-7.886 -28.556,0.001 z" style="fill:#e0e0e0;fill-opacity:1"/></g></g></g></svg>