<svg xmlns="http://www.w3.org/2000/svg" xmlns:svg="http://www.w3.org/2000/svg" id="svg6" width="16" height="16" version="1.1" viewBox="0 0 16 16"><metadata id="metadata12"/><path style="fill:none;stroke:#84c2ff;stroke-width:1.70000005;stroke-linecap:butt;stroke-linejoin:miter;stroke-miterlimit:4.9000001;stroke-dasharray:none;stroke-opacity:1" id="path4526" d="m 1.7627119,13.627119 c 0,0 1.2881355,-6.847458 6.5762712,-8.1355935 5.0847459,0.9491522 5.9661009,8.1355925 5.9661009,8.1355925"/><ellipse style="fill:#e0e0e0;fill-opacity:1;stroke:none;stroke-width:5.64574671;stroke-miterlimit:4.9000001;stroke-dasharray:none;stroke-opacity:1" id="path5846" cx="1.898" cy="13.492" rx="1.268" ry="1.2"/><ellipse style="fill:#e0e0e0;fill-opacity:1;stroke:none;stroke-width:5.64574671;stroke-miterlimit:4.9000001;stroke-dasharray:none;stroke-opacity:1" id="path5846-3" cx="14.237" cy="13.492" rx="1.268" ry="1.2"/><path style="fill:none;stroke:#84c2ff;stroke-width:.80513805;stroke-linecap:butt;stroke-linejoin:miter;stroke-miterlimit:4;stroke-dasharray:none;stroke-opacity:1" id="path5878" d="M 7.6850253,4.7560401 3.9088983,5.4168"/><path style="fill:none;stroke:#84c2ff;stroke-width:.73079807;stroke-linecap:butt;stroke-linejoin:miter;stroke-miterlimit:4;stroke-dasharray:none;stroke-opacity:1" id="path5878-7" d="M 11.695505,2.3941651 8.696384,4.6876729"/><ellipse style="fill:#e0e0e0;fill-opacity:1;stroke:none;stroke-width:5.64574671;stroke-miterlimit:4.9000001;stroke-dasharray:none;stroke-opacity:1" id="path5846-3-6" cx="8.271" cy="4.78" rx="1.268" ry="1.2"/><path style="fill:#e0e0e0;fill-opacity:1;stroke:none;stroke-width:5.64574671;stroke-miterlimit:4.9000001;stroke-dasharray:none;stroke-opacity:1" id="path5846-5" d="M 2.4961199,4.3976698 A 1.1997888,1.2675855 80.074672 0 0 1.4542161,5.7974257 1.1997888,1.2675855 80.074672 0 0 2.9095255,6.7602105 1.1997888,1.2675855 80.074672 0 0 3.9514292,5.3604547 1.1997888,1.2675855 80.074672 0 0 2.4961199,4.3976698 Z m 0.074974,0.4171488 A 0.80148375,0.84677333 80.074672 0 1 3.5440925,5.4575082 0.80148375,0.84677333 80.074672 0 1 2.8471493,6.3924102 0.80148375,0.84677333 80.074672 0 1 1.8741535,5.74972 0.80148375,0.84677333 80.074672 0 1 2.5710967,4.814818 Z"/><path style="fill:#e0e0e0;fill-opacity:1;stroke:none;stroke-width:5.7567277;stroke-miterlimit:4.9000001;stroke-dasharray:none;stroke-opacity:1" id="path5846-5-6" d="m 11.838896,0.64428913 a 1.231838,1.2836218 52.593897 0 0 -0.271701,1.75779027 1.231838,1.2836218 52.593897 0 0 1.767576,0.1983008 1.231838,1.2836218 52.593897 0 0 0.271701,-1.75779027 1.231838,1.2836218 52.593897 0 0 -1.767576,-0.1983008 z m 0.265925,0.3444462 A 0.82289328,0.85748593 52.593897 0 1 13.286115,1.1203938 0.82289328,0.85748593 52.593897 0 1 13.103698,2.2949179 0.82289328,0.85748593 52.593897 0 1 11.922407,2.163257 0.82289328,0.85748593 52.593897 0 1 12.104824,0.98873353 Z"/></svg>