<svg xmlns="http://www.w3.org/2000/svg" xmlns:xlink="http://www.w3.org/1999/xlink" width="16" height="16" version="1.1" viewBox="0 0 16 16"><defs><linearGradient id="a" x1="10" x2="10" y1="1" y2="15" gradientUnits="userSpaceOnUse"><stop offset="0" stop-color="#e0e0e0"/><stop offset="1" stop-color="#e0e0e0" stop-opacity="0"/></linearGradient></defs><g transform="translate(0 -1036.4)"><path fill="url(#a)" d="m2 1a1 1 0 0 0 -1 1v12a1 1 0 0 0 1 1h12a1 1 0 0 0 1 -1v-12a1 1 0 0 0 -1 -1h-12zm1 2h10v8h-10v-8z" transform="translate(0 1036.4)"/><rect width="2" height="1" x="6" y="1043.4" fill="#e0e0e0"/><rect width="2" height="2" x="6" y="1044.4" fill="#e0e0e0"/><rect width="2" height="1" x="4" y="1045.4" fill="#e0e0e0"/><rect width="2" height="2" x="8" y="1044.4" fill="#e0e0e0"/><rect width="2" height="2" x="10" y="1044.4" fill="#e0e0e0"/><rect width="3" height="2" x="8" y="1042.4" fill="#e0e0e0"/><rect width="1" height="1" x="9" y="1041.4" fill="#e0e0e0"/><rect width="1" height="1" x="5" y="1044.4" fill="#e0e0e0"/></g></svg>