<svg xmlns="http://www.w3.org/2000/svg" xmlns:svg="http://www.w3.org/2000/svg" id="svg2" width="16" height="16" version="1.1" viewBox="0 0 16 16"><metadata id="metadata14"/><path style="opacity:1;fill:#fc9c9c;fill-opacity:.99607843;fill-rule:nonzero;stroke:none;stroke-width:1.42799997;stroke-linecap:square;stroke-linejoin:miter;stroke-miterlimit:4;stroke-dasharray:none;stroke-dashoffset:0;stroke-opacity:1" id="rect4142" d="m 2.3447105,1.6091897 c -0.011911,1.9816766 -1.4168958,3.9344766 0,5.9495986 1.4168957,2.0151221 0,6.6693597 0,6.6693597 l 10.9510055,0 c 0,0 1.780829,-4.4523824 0,-6.489075 -1.780829,-2.0366925 -0.183458,-4.119112 0,-6.1298833 z m 1.8894067,0.7549031 7.4390658,0 c -0.431995,1.5996085 -1.62289,4.0426807 0,5.3749802 1.622888,1.3322996 0,5.887932 0,5.887932 l -7.4390658,0 c 0,0 1.3903413,-4.3680495 0,-5.9780743 -1.3903412,-1.6100247 -0.3951213,-3.7149271 0,-5.2848379 z"/></svg>